<svg width="118" height="139" viewBox="0 0 118 139" fill="none" xmlns="http://www.w3.org/2000/svg">
<path d="M115.975 84.8663H52.7273C52.2223 84.8657 51.738 84.665 51.3809 84.3083C51.0237 83.9516 50.8229 83.4679 50.8223 82.9635V61.6522C50.8229 61.1477 51.0237 60.664 51.3809 60.3073C51.738 59.9506 52.2223 59.7499 52.7273 59.7494H115.975C116.48 59.7499 116.964 59.9506 117.321 60.3073C117.679 60.664 117.879 61.1477 117.88 61.6522V82.9635C117.879 83.4679 117.679 83.9516 117.321 84.3083C116.964 84.665 116.48 84.8657 115.975 84.8663Z" fill="#F1F1F1"/>
<path d="M77.4929 65.4578H60.7285V67.3606H77.4929V65.4578Z" fill="#15CEFF"/>
<path d="M99.5918 67.7411C100.223 67.7411 100.735 67.23 100.735 66.5994C100.735 65.9689 100.223 65.4578 99.5918 65.4578C98.9605 65.4578 98.4487 65.9689 98.4487 66.5994C98.4487 67.23 98.9605 67.7411 99.5918 67.7411Z" fill="#15CEFF"/>
<path d="M103.402 67.7411C104.033 67.7411 104.545 67.23 104.545 66.5994C104.545 65.9689 104.033 65.4578 103.402 65.4578C102.771 65.4578 102.259 65.9689 102.259 66.5994C102.259 67.23 102.771 67.7411 103.402 67.7411Z" fill="#15CEFF"/>
<path d="M107.212 67.7411C107.843 67.7411 108.355 67.23 108.355 66.5994C108.355 65.9689 107.843 65.4578 107.212 65.4578C106.581 65.4578 106.069 65.9689 106.069 66.5994C106.069 67.23 106.581 67.7411 107.212 67.7411Z" fill="#15CEFF"/>
<path d="M115.975 111.886H52.7273C52.2223 111.885 51.738 111.685 51.3809 111.328C51.0237 110.971 50.8229 110.488 50.8223 109.983V88.6718C50.8229 88.1674 51.0237 87.6837 51.3809 87.327C51.738 86.9703 52.2223 86.7696 52.7273 86.769H115.975C116.48 86.7696 116.964 86.9703 117.321 87.327C117.679 87.6837 117.879 88.1674 117.88 88.6718V109.983C117.879 110.488 117.679 110.971 117.321 111.328C116.964 111.685 116.48 111.885 115.975 111.886Z" fill="#F1F1F1"/>
<path d="M77.4929 92.4774H60.7285V94.3802H77.4929V92.4774Z" fill="#15CEFF"/>
<path d="M99.5918 94.7608C100.223 94.7608 100.735 94.2496 100.735 93.6191C100.735 92.9886 100.223 92.4774 99.5918 92.4774C98.9605 92.4774 98.4487 92.9886 98.4487 93.6191C98.4487 94.2496 98.9605 94.7608 99.5918 94.7608Z" fill="#15CEFF"/>
<path d="M103.402 94.7608C104.033 94.7608 104.545 94.2496 104.545 93.6191C104.545 92.9886 104.033 92.4774 103.402 92.4774C102.771 92.4774 102.259 92.9886 102.259 93.6191C102.259 94.2496 102.771 94.7608 103.402 94.7608Z" fill="#15CEFF"/>
<path d="M107.212 94.7608C107.843 94.7608 108.355 94.2496 108.355 93.6191C108.355 92.9886 107.843 92.4774 107.212 92.4774C106.581 92.4774 106.069 92.9886 106.069 93.6191C106.069 94.2496 106.581 94.7608 107.212 94.7608Z" fill="#15CEFF"/>
<path d="M115.975 138.906H52.7273C52.2223 138.905 51.738 138.704 51.3809 138.348C51.0237 137.991 50.8229 137.507 50.8223 137.003V115.692C50.8229 115.187 51.0237 114.703 51.3809 114.347C51.738 113.99 52.2223 113.789 52.7273 113.789H115.975C116.48 113.789 116.964 113.99 117.321 114.347C117.679 114.703 117.879 115.187 117.88 115.692V137.003C117.879 137.507 117.679 137.991 117.321 138.348C116.964 138.704 116.48 138.905 115.975 138.906Z" fill="#F1F1F1"/>
<path d="M77.4929 119.497H60.7285V121.4H77.4929V119.497Z" fill="#15CEFF"/>
<path d="M99.5918 121.78C100.223 121.78 100.735 121.269 100.735 120.639C100.735 120.008 100.223 119.497 99.5918 119.497C98.9605 119.497 98.4487 120.008 98.4487 120.639C98.4487 121.269 98.9605 121.78 99.5918 121.78Z" fill="#15CEFF"/>
<path d="M103.402 121.78C104.033 121.78 104.545 121.269 104.545 120.639C104.545 120.008 104.033 119.497 103.402 119.497C102.771 119.497 102.259 120.008 102.259 120.639C102.259 121.269 102.771 121.78 103.402 121.78Z" fill="#15CEFF"/>
<path d="M107.212 121.78C107.843 121.78 108.355 121.269 108.355 120.639C108.355 120.008 107.843 119.497 107.212 119.497C106.581 119.497 106.069 120.008 106.069 120.639C106.069 121.269 106.581 121.78 107.212 121.78Z" fill="#15CEFF"/>
<path d="M92.1316 38.939L92.0616 38.8874L92.06 38.8862C91.9697 38.8192 91.8672 38.7707 91.7582 38.7434C91.6492 38.716 91.5359 38.7104 91.4247 38.7268C91.3136 38.7432 91.2067 38.7813 91.1103 38.8389C91.0139 38.8966 90.9297 38.9726 90.8628 39.0627L76.6265 58.2078H75.0603V57.8403C75.0603 57.7496 75.0242 57.6626 74.96 57.5985C74.8958 57.5344 74.8088 57.4984 74.718 57.4984H73.7835C73.6927 57.4984 73.6057 57.5344 73.5415 57.5985C73.4773 57.6626 73.4412 57.7496 73.4412 57.8403V58.2078H72.9004V57.8403C72.9004 57.7496 72.8643 57.6626 72.8001 57.5985C72.7359 57.5344 72.6489 57.4984 72.5581 57.4984H71.6236C71.5328 57.4984 71.4458 57.5344 71.3816 57.5985C71.3174 57.6626 71.2813 57.7496 71.2813 57.8403V58.2078H70.7422V57.8403C70.7422 57.7496 70.7062 57.6626 70.642 57.5985C70.5778 57.5344 70.4907 57.4984 70.3999 57.4984H69.4655C69.3747 57.4984 69.2876 57.5344 69.2234 57.5985C69.1592 57.6626 69.1232 57.7496 69.1232 57.8403V58.2078H68.5823V57.8403C68.5823 57.7496 68.5463 57.6626 68.4821 57.5985C68.4179 57.5344 68.3308 57.4984 68.24 57.4984H67.3055C67.2148 57.4984 67.1277 57.5344 67.0635 57.5985C66.9993 57.6626 66.9633 57.7496 66.9633 57.8403V58.2078H66.4242V57.8403C66.4242 57.7496 66.3881 57.6626 66.3239 57.5985C66.2597 57.5344 66.1726 57.4984 66.0819 57.4984H65.1474C65.1024 57.4984 65.0579 57.5072 65.0164 57.5244C64.9749 57.5416 64.9371 57.5668 64.9053 57.5985C64.8736 57.6303 64.8483 57.668 64.8311 57.7094C64.8139 57.7509 64.8051 57.7954 64.8051 57.8403V58.2078H64.2643V57.8403C64.2643 57.7496 64.2282 57.6626 64.164 57.5985C64.0998 57.5344 64.0127 57.4984 63.922 57.4984H62.9875C62.8967 57.4984 62.8097 57.5344 62.7455 57.5985C62.6813 57.6626 62.6452 57.7496 62.6452 57.8403V58.2078H62.1044V57.8403C62.1043 57.7496 62.0683 57.6626 62.0041 57.5985C61.9399 57.5344 61.8528 57.4984 61.762 57.4984H60.8276C60.7368 57.4984 60.6497 57.5344 60.5856 57.5985C60.5214 57.6626 60.4853 57.7496 60.4853 57.8403V58.2078H59.9462V57.8403C59.9462 57.7496 59.9101 57.6626 59.8459 57.5985C59.7817 57.5344 59.6947 57.4984 59.6039 57.4984H58.6694C58.5786 57.4984 58.4916 57.5344 58.4274 57.5985C58.3632 57.6626 58.3271 57.7496 58.3271 57.8403V58.2078H57.7863V57.8403C57.7863 57.7496 57.7502 57.6626 57.686 57.5985C57.6218 57.5344 57.5348 57.4984 57.444 57.4984H56.5095C56.4187 57.4984 56.3317 57.5344 56.2675 57.5985C56.2033 57.6626 56.1672 57.7496 56.1672 57.8403V58.2078H55.6281V57.8403C55.6281 57.7496 55.5921 57.6626 55.5279 57.5985C55.4637 57.5344 55.3766 57.4984 55.2858 57.4984H54.3514C54.2606 57.4984 54.1735 57.5344 54.1093 57.5985C54.0451 57.6626 54.0091 57.7496 54.0091 57.8403V58.2078H53.3313C53.2189 58.2078 53.1077 58.2299 53.0038 58.2729C52.9 58.3158 52.8057 58.3788 52.7262 58.4582C52.6468 58.5375 52.5837 58.6317 52.5407 58.7355C52.4977 58.8392 52.4756 58.9503 52.4756 59.0625V59.878C52.4756 59.9902 52.4977 60.1013 52.5407 60.205C52.5837 60.3088 52.6468 60.403 52.7262 60.4823C52.8057 60.5617 52.9 60.6247 53.0038 60.6676C53.1077 60.7106 53.2189 60.7327 53.3313 60.7327H76.4845C76.7777 60.7326 77.062 60.6317 77.2894 60.4468C77.5168 60.2619 77.6735 60.0043 77.733 59.7176L77.7418 59.7241L92.3071 40.1365L92.3084 40.1348C92.4437 39.9528 92.5011 39.7246 92.4679 39.5004C92.4347 39.2761 92.3138 39.0742 92.1316 38.939Z" fill="#3F3D56"/>
<path d="M2.16016 131.646L5.03607 133.116L12.0812 122.736L7.83685 120.566L2.16016 131.646Z" fill="#FFB7B7"/>
<path d="M1.90711 130.333L7.57084 133.228L7.57108 133.228C8.52827 133.718 9.25165 134.567 9.5821 135.589C9.91255 136.611 9.82301 137.722 9.33317 138.678L9.27314 138.795L0 134.055L1.90711 130.333Z" fill="#2F2E41"/>
<path d="M35.3755 135.667H38.6062L40.1431 123.221H35.375L35.3755 135.667Z" fill="#FFB7B7"/>
<path d="M34.5513 134.614L40.9136 134.614H40.9138C41.9891 134.614 43.0204 135.04 43.7807 135.8C44.5411 136.559 44.9683 137.589 44.9684 138.663V138.795L34.5515 138.795L34.5513 134.614Z" fill="#2F2E41"/>
<path d="M20.2638 34.1462C20.2638 34.1462 18.1004 32.4907 18.1004 36.5345L17.7588 49.8975L21.5732 62.5212L23.7935 58.4271L22.8826 49.5563L20.2638 34.1462Z" fill="#2F2E41"/>
<path d="M43.4058 70.6963C43.4058 70.6963 45.9144 82.8991 42.7368 92.9135L40.9807 131.418L34.5418 130.916L32.284 102.352L30.1099 88.1527L25.5943 101.099L10.7095 128.494L3.85254 123.149C3.85254 123.149 11.4512 102.44 17.0648 98.0919L19.8802 66.0636L43.4058 70.6963Z" fill="#2F2E41"/>
<path d="M42.2157 14.0155C44.1605 10.4619 42.853 6.00634 39.2952 4.06375C35.7373 2.12117 31.2765 3.42719 29.3316 6.98081C27.3867 10.5344 28.6943 14.99 32.2521 16.9326C35.8099 18.8752 40.2708 17.5692 42.2157 14.0155Z" fill="#FFB7B7"/>
<path d="M35.2535 12.0535C36.1336 12.1679 36.7975 11.2685 37.1054 10.4371C37.4133 9.60571 37.6479 8.63779 38.4131 8.18868C39.4585 7.57512 40.796 8.31308 41.9915 8.11064C43.3415 7.88203 44.2193 6.45294 44.2881 5.08697C44.3569 3.72101 43.8127 2.40724 43.2787 1.14783L43.0922 2.71299C43.1172 2.18252 43.0054 1.65453 42.7677 1.17953C42.5299 0.704531 42.1741 0.298404 41.7343 0L41.9746 2.29662C41.9234 1.97977 41.8102 1.67612 41.6412 1.40311C41.4723 1.13009 41.2511 0.89308 40.9902 0.70568C40.7294 0.518279 40.434 0.384176 40.1212 0.311069C39.8083 0.237962 39.484 0.227289 39.167 0.279663L39.2049 1.64808C37.6456 1.46288 36.0726 1.27742 34.5087 1.41851C32.9448 1.55961 31.3699 2.05384 30.1846 3.08258C28.4116 4.62142 27.764 7.15531 27.9814 9.49137C28.1988 11.8274 29.1643 14.022 30.1705 16.1419C30.4236 16.6753 30.7738 17.2772 31.3609 17.3452C31.8884 17.4062 32.371 16.9658 32.535 16.4614C32.6613 15.9438 32.6564 15.4029 32.5208 14.8876C32.3724 14.1002 32.1854 13.2954 32.3249 12.5064C32.4644 11.7174 33.0327 10.9377 33.829 10.841C34.6253 10.7443 35.4401 11.6534 35.0572 12.3575L35.2535 12.0535Z" fill="#2F2E41"/>
<path d="M43.8599 73.9597L19.353 72.3804L21.1976 64.7475L43.5962 69.7485L43.8599 73.9597Z" fill="#CBCBCB"/>
<path d="M28.7464 20.4989L30.2836 18.3673C30.2836 18.3673 32.0016 18.9505 36.6029 21.2381L36.928 23.2352L44.9149 72.3018L30.3974 71.6763L26.4441 71.5923L25.1503 68.6957L23.555 71.5309L19.6944 71.4489L15.7661 69.1743L19.6374 57.3467L20.8899 46.5425L18.9543 36.3639C18.9543 36.3639 16.5185 27.0171 25.8998 21.9774L28.7464 20.4989Z" fill="#2F2E41"/>
<path d="M61.4678 57.6426C61.1123 57.7329 60.7413 57.7441 60.3809 57.6757C60.0205 57.6072 59.6796 57.4606 59.3821 57.2463C59.0846 57.032 58.8378 56.7551 58.659 56.4352C58.4802 56.1153 58.3738 55.7601 58.3473 55.3947L49.7344 53.0904L53.1992 50.0176L60.847 52.6769C61.4645 52.6731 62.062 52.8958 62.5262 53.3026C62.9904 53.7095 63.2891 54.2723 63.3656 54.8844C63.4421 55.4964 63.2912 56.1153 62.9414 56.6237C62.5916 57.1321 62.0673 57.4946 61.4678 57.6426Z" fill="#FFB7B7"/>
<path d="M57.6106 56.3418C57.4295 56.4403 57.2296 56.4996 57.024 56.5159C56.8185 56.5322 56.6117 56.5051 56.4173 56.4363L42.2488 51.0651C38.7922 49.8413 35.8983 47.4051 34.1055 44.2096L28.197 33.682C27.7821 33.2195 27.4626 32.6797 27.2568 32.0936C27.051 31.5076 26.9629 30.8868 26.9976 30.2667C27.0323 29.6466 27.189 29.0394 27.4589 28.4799C27.7288 27.9204 28.1065 27.4195 28.5703 27.0059C29.0342 26.5924 29.5752 26.2743 30.1623 26.0697C30.7494 25.8652 31.3712 25.7784 31.9919 25.8141C32.6127 25.8499 33.2203 26.0076 33.78 26.2781C34.3397 26.5487 34.8404 26.9268 35.2537 27.3909L45.4804 43.581L58.3506 51.1176C58.6028 51.2829 58.7982 51.5216 58.9102 51.8014C59.0222 52.0813 59.0455 52.3887 58.9769 52.6821L58.3369 55.391C58.2681 55.6815 58.1124 55.9441 57.8904 56.1439C57.8052 56.2207 57.7113 56.2871 57.6106 56.3418Z" fill="#2F2E41"/>
</svg>
